<svg id="visual" viewBox="0 0 960 540" width="960" height="540" xmlns="http://www.w3.org/2000/svg" xmlns:xlink="http://www.w3.org/1999/xlink" version="1.1"><path d="M0 316L32 319C64 322 128 328 192 324.2C256 320.3 320 306.7 384 300.3C448 294 512 295 576 283.5C640 272 704 248 768 248.3C832 248.7 896 273.3 928 285.7L960 298L960 541L928 541C896 541 832 541 768 541C704 541 640 541 576 541C512 541 448 541 384 541C320 541 256 541 192 541C128 541 64 541 32 541L0 541Z" fill="#407fff"></path><path d="M0 306L32 302.3C64 298.7 128 291.3 192 294.3C256 297.3 320 310.7 384 325.3C448 340 512 356 576 355.5C640 355 704 338 768 328.7C832 319.3 896 317.7 928 316.8L960 316L960 541L928 541C896 541 832 541 768 541C704 541 640 541 576 541C512 541 448 541 384 541C320 541 256 541 192 541C128 541 64 541 32 541L0 541Z" fill="#4965d0"></path><path d="M0 345L32 349.2C64 353.3 128 361.7 192 357.3C256 353 320 336 384 342.2C448 348.3 512 377.7 576 379.7C640 381.7 704 356.3 768 346.2C832 336 896 341 928 343.5L960 346L960 541L928 541C896 541 832 541 768 541C704 541 640 541 576 541C512 541 448 541 384 541C320 541 256 541 192 541C128 541 64 541 32 541L0 541Z" fill="#464ca3"></path><path d="M0 376L32 377.5C64 379 128 382 192 387C256 392 320 399 384 406.7C448 414.3 512 422.7 576 419.7C640 416.7 704 402.3 768 394.5C832 386.7 896 385.3 928 384.7L960 384L960 541L928 541C896 541 832 541 768 541C704 541 640 541 576 541C512 541 448 541 384 541C320 541 256 541 192 541C128 541 64 541 32 541L0 541Z" fill="#3c3678"></path><path d="M0 459L32 450.2C64 441.3 128 423.7 192 419C256 414.3 320 422.7 384 424.3C448 426 512 421 576 424.2C640 427.3 704 438.7 768 438.5C832 438.3 896 426.7 928 420.8L960 415L960 541L928 541C896 541 832 541 768 541C704 541 640 541 576 541C512 541 448 541 384 541C320 541 256 541 192 541C128 541 64 541 32 541L0 541Z" fill="#2e2251"></path><path d="M0 497L32 493.8C64 490.7 128 484.3 192 479.8C256 475.3 320 472.7 384 475C448 477.3 512 484.7 576 482.7C640 480.7 704 469.3 768 463.8C832 458.3 896 458.7 928 458.8L960 459L960 541L928 541C896 541 832 541 768 541C704 541 640 541 576 541C512 541 448 541 384 541C320 541 256 541 192 541C128 541 64 541 32 541L0 541Z" fill="#1c112e"></path></svg>